<mxfile host="app.diagrams.net" agent="Mozilla/5.0 (Macintosh; Intel Mac OS X 10_15_7) AppleWebKit/537.36 (KHTML, like Gecko) Chrome/131.0.0.0 Safari/537.36" version="24.8.4">
  <diagram name="第 1 页" id="ByJtC8P6L9mGmpsrxB68">
    <mxGraphModel dx="1026" dy="650" grid="1" gridSize="10" guides="1" tooltips="1" connect="1" arrows="1" fold="1" page="1" pageScale="1" pageWidth="827" pageHeight="1169" math="0" shadow="0">
      <root>
        <mxCell id="0" />
        <mxCell id="1" parent="0" />
        <mxCell id="OrB6n1pMrCLvxqhKmj58-3" value="" style="edgeStyle=orthogonalEdgeStyle;rounded=0;orthogonalLoop=1;jettySize=auto;html=1;" edge="1" parent="1" source="OrB6n1pMrCLvxqhKmj58-1" target="OrB6n1pMrCLvxqhKmj58-2">
          <mxGeometry relative="1" as="geometry" />
        </mxCell>
        <mxCell id="OrB6n1pMrCLvxqhKmj58-1" value="查询接口" style="ellipse;whiteSpace=wrap;html=1;" vertex="1" parent="1">
          <mxGeometry x="212.5" y="167.5" width="90" height="50" as="geometry" />
        </mxCell>
        <mxCell id="OrB6n1pMrCLvxqhKmj58-5" style="edgeStyle=orthogonalEdgeStyle;rounded=0;orthogonalLoop=1;jettySize=auto;html=1;" edge="1" parent="1" source="OrB6n1pMrCLvxqhKmj58-2" target="OrB6n1pMrCLvxqhKmj58-4">
          <mxGeometry relative="1" as="geometry">
            <Array as="points">
              <mxPoint x="258" y="360" />
              <mxPoint x="150" y="360" />
            </Array>
          </mxGeometry>
        </mxCell>
        <mxCell id="OrB6n1pMrCLvxqhKmj58-7" style="edgeStyle=orthogonalEdgeStyle;rounded=0;orthogonalLoop=1;jettySize=auto;html=1;" edge="1" parent="1" source="OrB6n1pMrCLvxqhKmj58-2" target="OrB6n1pMrCLvxqhKmj58-6">
          <mxGeometry relative="1" as="geometry">
            <Array as="points">
              <mxPoint x="258" y="360" />
              <mxPoint x="357" y="360" />
            </Array>
          </mxGeometry>
        </mxCell>
        <mxCell id="OrB6n1pMrCLvxqhKmj58-2" value="参数校验通过" style="rhombus;whiteSpace=wrap;html=1;" vertex="1" parent="1">
          <mxGeometry x="210" y="267.5" width="95" height="55" as="geometry" />
        </mxCell>
        <mxCell id="OrB6n1pMrCLvxqhKmj58-23" style="edgeStyle=orthogonalEdgeStyle;rounded=0;orthogonalLoop=1;jettySize=auto;html=1;entryX=0.5;entryY=0;entryDx=0;entryDy=0;" edge="1" parent="1" source="OrB6n1pMrCLvxqhKmj58-4" target="OrB6n1pMrCLvxqhKmj58-16">
          <mxGeometry relative="1" as="geometry">
            <mxPoint x="160" y="670" as="targetPoint" />
            <Array as="points">
              <mxPoint x="150" y="640" />
              <mxPoint x="249" y="640" />
            </Array>
          </mxGeometry>
        </mxCell>
        <mxCell id="OrB6n1pMrCLvxqhKmj58-4" value="标签基础信息表" style="shape=cylinder3;whiteSpace=wrap;html=1;boundedLbl=1;backgroundOutline=1;size=15;" vertex="1" parent="1">
          <mxGeometry x="120" y="397.5" width="60" height="80" as="geometry" />
        </mxCell>
        <mxCell id="OrB6n1pMrCLvxqhKmj58-18" style="edgeStyle=orthogonalEdgeStyle;rounded=0;orthogonalLoop=1;jettySize=auto;html=1;entryX=0.5;entryY=0;entryDx=0;entryDy=0;" edge="1" parent="1" target="OrB6n1pMrCLvxqhKmj58-16">
          <mxGeometry relative="1" as="geometry">
            <mxPoint x="360.72" y="600" as="sourcePoint" />
            <Array as="points">
              <mxPoint x="361.22" y="642.5" />
              <mxPoint x="249.22" y="642.5" />
            </Array>
          </mxGeometry>
        </mxCell>
        <mxCell id="OrB6n1pMrCLvxqhKmj58-19" value="封装数据" style="edgeLabel;html=1;align=center;verticalAlign=middle;resizable=0;points=[];" vertex="1" connectable="0" parent="OrB6n1pMrCLvxqhKmj58-18">
          <mxGeometry x="0.6296" y="-2" relative="1" as="geometry">
            <mxPoint x="2" y="-2" as="offset" />
          </mxGeometry>
        </mxCell>
        <mxCell id="OrB6n1pMrCLvxqhKmj58-22" value="" style="edgeStyle=orthogonalEdgeStyle;rounded=0;orthogonalLoop=1;jettySize=auto;html=1;" edge="1" parent="1" source="OrB6n1pMrCLvxqhKmj58-6" target="OrB6n1pMrCLvxqhKmj58-21">
          <mxGeometry relative="1" as="geometry" />
        </mxCell>
        <mxCell id="OrB6n1pMrCLvxqhKmj58-6" value="标签码值表" style="shape=cylinder3;whiteSpace=wrap;html=1;boundedLbl=1;backgroundOutline=1;size=15;" vertex="1" parent="1">
          <mxGeometry x="326.5" y="387.5" width="60" height="82.5" as="geometry" />
        </mxCell>
        <mxCell id="OrB6n1pMrCLvxqhKmj58-10" value="" style="edgeStyle=orthogonalEdgeStyle;rounded=0;orthogonalLoop=1;jettySize=auto;html=1;" edge="1" parent="1" source="OrB6n1pMrCLvxqhKmj58-8" target="OrB6n1pMrCLvxqhKmj58-9">
          <mxGeometry relative="1" as="geometry" />
        </mxCell>
        <mxCell id="OrB6n1pMrCLvxqhKmj58-8" value="数据洞察平台&lt;div&gt;定时轮训&lt;/div&gt;" style="shape=hexagon;perimeter=hexagonPerimeter2;whiteSpace=wrap;html=1;fixedSize=1;" vertex="1" parent="1">
          <mxGeometry x="741.25" y="150" width="110" height="62" as="geometry" />
        </mxCell>
        <mxCell id="OrB6n1pMrCLvxqhKmj58-12" value="" style="edgeStyle=orthogonalEdgeStyle;rounded=0;orthogonalLoop=1;jettySize=auto;html=1;" edge="1" parent="1" source="OrB6n1pMrCLvxqhKmj58-9" target="OrB6n1pMrCLvxqhKmj58-30">
          <mxGeometry relative="1" as="geometry">
            <mxPoint x="796.25" y="430" as="targetPoint" />
          </mxGeometry>
        </mxCell>
        <mxCell id="OrB6n1pMrCLvxqhKmj58-9" value="校验标签是否是&lt;div&gt;文本型&lt;/div&gt;" style="rhombus;whiteSpace=wrap;html=1;" vertex="1" parent="1">
          <mxGeometry x="738.75" y="300" width="115" height="61.5" as="geometry" />
        </mxCell>
        <mxCell id="OrB6n1pMrCLvxqhKmj58-16" value="返回结果" style="rounded=1;whiteSpace=wrap;html=1;" vertex="1" parent="1">
          <mxGeometry x="189.22" y="677.5" width="120" height="60" as="geometry" />
        </mxCell>
        <mxCell id="OrB6n1pMrCLvxqhKmj58-20" value="根据id查询&lt;div&gt;正序排序&lt;/div&gt;" style="text;html=1;align=center;verticalAlign=middle;resizable=0;points=[];autosize=1;strokeColor=none;fillColor=none;" vertex="1" parent="1">
          <mxGeometry x="45" y="425" width="80" height="40" as="geometry" />
        </mxCell>
        <mxCell id="OrB6n1pMrCLvxqhKmj58-21" value="校验是否&lt;div&gt;需要码值信息（文本）&lt;/div&gt;" style="rhombus;whiteSpace=wrap;html=1;" vertex="1" parent="1">
          <mxGeometry x="316.5" y="520" width="80" height="80" as="geometry" />
        </mxCell>
        <mxCell id="OrB6n1pMrCLvxqhKmj58-86" value="" style="edgeStyle=orthogonalEdgeStyle;rounded=0;orthogonalLoop=1;jettySize=auto;html=1;" edge="1" parent="1" source="OrB6n1pMrCLvxqhKmj58-30" target="OrB6n1pMrCLvxqhKmj58-85">
          <mxGeometry relative="1" as="geometry" />
        </mxCell>
        <mxCell id="OrB6n1pMrCLvxqhKmj58-30" value="校验标签是&lt;div&gt;否更新完成&lt;/div&gt;" style="rhombus;whiteSpace=wrap;html=1;" vertex="1" parent="1">
          <mxGeometry x="744.38" y="425" width="103.75" height="80" as="geometry" />
        </mxCell>
        <mxCell id="OrB6n1pMrCLvxqhKmj58-49" style="edgeStyle=orthogonalEdgeStyle;rounded=0;orthogonalLoop=1;jettySize=auto;html=1;" edge="1" parent="1" source="OrB6n1pMrCLvxqhKmj58-33" target="OrB6n1pMrCLvxqhKmj58-48">
          <mxGeometry relative="1" as="geometry" />
        </mxCell>
        <mxCell id="OrB6n1pMrCLvxqhKmj58-50" value="是" style="edgeLabel;html=1;align=center;verticalAlign=middle;resizable=0;points=[];" vertex="1" connectable="0" parent="OrB6n1pMrCLvxqhKmj58-49">
          <mxGeometry x="0.2985" y="-1" relative="1" as="geometry">
            <mxPoint as="offset" />
          </mxGeometry>
        </mxCell>
        <mxCell id="OrB6n1pMrCLvxqhKmj58-57" style="edgeStyle=orthogonalEdgeStyle;rounded=0;orthogonalLoop=1;jettySize=auto;html=1;" edge="1" parent="1" source="OrB6n1pMrCLvxqhKmj58-33" target="OrB6n1pMrCLvxqhKmj58-52">
          <mxGeometry relative="1" as="geometry">
            <Array as="points">
              <mxPoint x="650" y="730" />
              <mxPoint x="650" y="1120" />
            </Array>
          </mxGeometry>
        </mxCell>
        <mxCell id="OrB6n1pMrCLvxqhKmj58-58" value="否" style="edgeLabel;html=1;align=center;verticalAlign=middle;resizable=0;points=[];" vertex="1" connectable="0" parent="OrB6n1pMrCLvxqhKmj58-57">
          <mxGeometry x="-0.0021" y="-1" relative="1" as="geometry">
            <mxPoint as="offset" />
          </mxGeometry>
        </mxCell>
        <mxCell id="OrB6n1pMrCLvxqhKmj58-33" value="判断是否是&lt;div&gt;第一次插入&lt;/div&gt;" style="rhombus;whiteSpace=wrap;html=1;" vertex="1" parent="1">
          <mxGeometry x="754.245" y="690" width="80" height="80" as="geometry" />
        </mxCell>
        <mxCell id="OrB6n1pMrCLvxqhKmj58-55" value="" style="edgeStyle=orthogonalEdgeStyle;rounded=0;orthogonalLoop=1;jettySize=auto;html=1;" edge="1" parent="1" source="OrB6n1pMrCLvxqhKmj58-48" target="OrB6n1pMrCLvxqhKmj58-54">
          <mxGeometry relative="1" as="geometry" />
        </mxCell>
        <mxCell id="OrB6n1pMrCLvxqhKmj58-56" value="否" style="edgeLabel;html=1;align=center;verticalAlign=middle;resizable=0;points=[];" vertex="1" connectable="0" parent="OrB6n1pMrCLvxqhKmj58-55">
          <mxGeometry x="-0.142" y="1" relative="1" as="geometry">
            <mxPoint as="offset" />
          </mxGeometry>
        </mxCell>
        <mxCell id="OrB6n1pMrCLvxqhKmj58-89" value="" style="edgeStyle=orthogonalEdgeStyle;rounded=0;orthogonalLoop=1;jettySize=auto;html=1;" edge="1" parent="1" source="OrB6n1pMrCLvxqhKmj58-48" target="OrB6n1pMrCLvxqhKmj58-88">
          <mxGeometry relative="1" as="geometry" />
        </mxCell>
        <mxCell id="OrB6n1pMrCLvxqhKmj58-48" value="是否小于1000条" style="rhombus;whiteSpace=wrap;html=1;" vertex="1" parent="1">
          <mxGeometry x="746.26" y="835" width="80" height="80" as="geometry" />
        </mxCell>
        <mxCell id="OrB6n1pMrCLvxqhKmj58-52" value="麻雀码值表" style="shape=cylinder3;whiteSpace=wrap;html=1;boundedLbl=1;backgroundOutline=1;size=15;" vertex="1" parent="1">
          <mxGeometry x="754.24" y="1270" width="64" height="80" as="geometry" />
        </mxCell>
        <mxCell id="OrB6n1pMrCLvxqhKmj58-54" value="不存放当日数据" style="whiteSpace=wrap;html=1;" vertex="1" parent="1">
          <mxGeometry x="886.26" y="845" width="120" height="60" as="geometry" />
        </mxCell>
        <mxCell id="OrB6n1pMrCLvxqhKmj58-59" value="" style="edgeStyle=orthogonalEdgeStyle;rounded=0;orthogonalLoop=1;jettySize=auto;html=1;" edge="1" parent="1" source="OrB6n1pMrCLvxqhKmj58-60" target="OrB6n1pMrCLvxqhKmj58-62">
          <mxGeometry relative="1" as="geometry" />
        </mxCell>
        <mxCell id="OrB6n1pMrCLvxqhKmj58-60" value="数据洞察平台&lt;div&gt;定时轮训&lt;/div&gt;" style="shape=hexagon;perimeter=hexagonPerimeter2;whiteSpace=wrap;html=1;fixedSize=1;" vertex="1" parent="1">
          <mxGeometry x="1221.25" y="150" width="110" height="62" as="geometry" />
        </mxCell>
        <mxCell id="OrB6n1pMrCLvxqhKmj58-61" value="" style="edgeStyle=orthogonalEdgeStyle;rounded=0;orthogonalLoop=1;jettySize=auto;html=1;" edge="1" parent="1" source="OrB6n1pMrCLvxqhKmj58-62">
          <mxGeometry relative="1" as="geometry">
            <mxPoint x="1276.25" y="425.0038554216869" as="targetPoint" />
          </mxGeometry>
        </mxCell>
        <mxCell id="OrB6n1pMrCLvxqhKmj58-62" value="校验标签是&lt;div&gt;否更新完成&lt;/div&gt;" style="rhombus;whiteSpace=wrap;html=1;" vertex="1" parent="1">
          <mxGeometry x="1218.75" y="300" width="115" height="61.5" as="geometry" />
        </mxCell>
        <mxCell id="OrB6n1pMrCLvxqhKmj58-79" value="" style="edgeStyle=orthogonalEdgeStyle;rounded=0;orthogonalLoop=1;jettySize=auto;html=1;" edge="1" parent="1" source="OrB6n1pMrCLvxqhKmj58-77" target="OrB6n1pMrCLvxqhKmj58-78">
          <mxGeometry relative="1" as="geometry" />
        </mxCell>
        <mxCell id="OrB6n1pMrCLvxqhKmj58-84" value="是" style="edgeLabel;html=1;align=center;verticalAlign=middle;resizable=0;points=[];" vertex="1" connectable="0" parent="OrB6n1pMrCLvxqhKmj58-79">
          <mxGeometry x="-0.4669" y="1" relative="1" as="geometry">
            <mxPoint as="offset" />
          </mxGeometry>
        </mxCell>
        <mxCell id="OrB6n1pMrCLvxqhKmj58-82" style="edgeStyle=orthogonalEdgeStyle;rounded=0;orthogonalLoop=1;jettySize=auto;html=1;" edge="1" parent="1" source="OrB6n1pMrCLvxqhKmj58-77" target="OrB6n1pMrCLvxqhKmj58-80">
          <mxGeometry relative="1" as="geometry">
            <Array as="points">
              <mxPoint x="1150" y="467.5" />
              <mxPoint x="1150" y="755" />
            </Array>
          </mxGeometry>
        </mxCell>
        <mxCell id="OrB6n1pMrCLvxqhKmj58-83" value="否" style="edgeLabel;html=1;align=center;verticalAlign=middle;resizable=0;points=[];" vertex="1" connectable="0" parent="OrB6n1pMrCLvxqhKmj58-82">
          <mxGeometry x="0.0201" y="-4" relative="1" as="geometry">
            <mxPoint as="offset" />
          </mxGeometry>
        </mxCell>
        <mxCell id="OrB6n1pMrCLvxqhKmj58-77" value="校验标签是否&lt;div&gt;存在七次&lt;/div&gt;&lt;div&gt;频率数据&lt;/div&gt;" style="rhombus;whiteSpace=wrap;html=1;" vertex="1" parent="1">
          <mxGeometry x="1200.88" y="425" width="150.75" height="85" as="geometry" />
        </mxCell>
        <mxCell id="OrB6n1pMrCLvxqhKmj58-81" value="" style="edgeStyle=orthogonalEdgeStyle;rounded=0;orthogonalLoop=1;jettySize=auto;html=1;" edge="1" parent="1" source="OrB6n1pMrCLvxqhKmj58-78" target="OrB6n1pMrCLvxqhKmj58-80">
          <mxGeometry relative="1" as="geometry" />
        </mxCell>
        <mxCell id="OrB6n1pMrCLvxqhKmj58-78" value="删除最后一次频率相关数据" style="shape=process;whiteSpace=wrap;html=1;backgroundOutline=1;" vertex="1" parent="1">
          <mxGeometry x="1216.2450000000001" y="585" width="120" height="60" as="geometry" />
        </mxCell>
        <mxCell id="OrB6n1pMrCLvxqhKmj58-80" value="新增当日频率数据前1000条" style="shape=process;whiteSpace=wrap;html=1;backgroundOutline=1;" vertex="1" parent="1">
          <mxGeometry x="1216.2450000000001" y="725" width="120" height="60" as="geometry" />
        </mxCell>
        <mxCell id="OrB6n1pMrCLvxqhKmj58-87" style="edgeStyle=orthogonalEdgeStyle;rounded=0;orthogonalLoop=1;jettySize=auto;html=1;entryX=0.5;entryY=0;entryDx=0;entryDy=0;" edge="1" parent="1" source="OrB6n1pMrCLvxqhKmj58-85" target="OrB6n1pMrCLvxqhKmj58-33">
          <mxGeometry relative="1" as="geometry" />
        </mxCell>
        <mxCell id="OrB6n1pMrCLvxqhKmj58-85" value="查询odps相关&lt;div&gt;标签当日码值数量&lt;/div&gt;" style="ellipse;shape=cloud;whiteSpace=wrap;html=1;" vertex="1" parent="1">
          <mxGeometry x="736.255" y="545" width="120" height="80" as="geometry" />
        </mxCell>
        <mxCell id="OrB6n1pMrCLvxqhKmj58-90" value="" style="edgeStyle=orthogonalEdgeStyle;rounded=0;orthogonalLoop=1;jettySize=auto;html=1;" edge="1" parent="1" source="OrB6n1pMrCLvxqhKmj58-88" target="OrB6n1pMrCLvxqhKmj58-52">
          <mxGeometry relative="1" as="geometry" />
        </mxCell>
        <mxCell id="OrB6n1pMrCLvxqhKmj58-88" value="查询odps&lt;div&gt;对应标签&lt;/div&gt;&lt;div&gt;所有数据&lt;/div&gt;" style="ellipse;shape=cloud;whiteSpace=wrap;html=1;" vertex="1" parent="1">
          <mxGeometry x="726.24" y="940" width="120" height="80" as="geometry" />
        </mxCell>
        <mxCell id="OrB6n1pMrCLvxqhKmj58-91" value="删除之前数据&lt;div&gt;新增当日数据&lt;/div&gt;" style="shape=process;whiteSpace=wrap;html=1;backgroundOutline=1;" vertex="1" parent="1">
          <mxGeometry x="726.24" y="1090" width="120" height="60" as="geometry" />
        </mxCell>
        <mxCell id="OrB6n1pMrCLvxqhKmj58-93" value="" style="edgeStyle=orthogonalEdgeStyle;rounded=0;orthogonalLoop=1;jettySize=auto;html=1;" edge="1" parent="1" source="OrB6n1pMrCLvxqhKmj58-92">
          <mxGeometry relative="1" as="geometry">
            <mxPoint x="746.2634959349592" y="468.79999999999995" as="targetPoint" />
          </mxGeometry>
        </mxCell>
        <mxCell id="OrB6n1pMrCLvxqhKmj58-92" value="标签更新完成" style="shape=hexagon;perimeter=hexagonPerimeter2;whiteSpace=wrap;html=1;fixedSize=1;" vertex="1" parent="1">
          <mxGeometry x="527.42" y="438" width="110" height="59" as="geometry" />
        </mxCell>
      </root>
    </mxGraphModel>
  </diagram>
</mxfile>
